<svg width="122" height="48" viewBox="0 0 122 48" fill="none" xmlns="http://www.w3.org/2000/svg">
<path d="M96.867 16.3389C95.5871 16.3389 94.5698 17.3606 94.5698 18.646C94.5698 19.8985 95.5871 20.9532 96.867 20.9532C98.1797 20.9532 99.1642 19.8985 99.1642 18.646C99.1642 17.3606 98.114 16.3389 96.867 16.3389Z" fill="black"/>
<path d="M102.521 12.3803C102.916 11.5607 102.579 10.5661 101.722 10.2621C100.245 9.7386 98.6489 9.4502 96.9987 9.4502C95.3078 9.4502 93.6719 9.76263 92.1591 10.3189C91.3105 10.6309 90.9795 11.6196 91.3717 12.4343C91.7758 13.2736 92.7901 13.6007 93.6748 13.3093C94.7195 12.9653 95.8306 12.7791 96.9987 12.7791C98.1344 12.7791 99.2142 12.9478 100.229 13.2667C101.113 13.5446 102.119 13.2153 102.521 12.3803Z" fill="#FF9800"/>
<path d="M105.589 5.97076C106.03 5.04902 105.652 3.93545 104.701 3.56172C102.296 2.61657 99.6892 2.10059 96.9328 2.10059C94.1663 2.10059 91.5292 2.62032 89.1088 3.58959C88.1676 3.96651 87.7979 5.07192 88.2354 5.98656C88.6864 6.92952 89.8214 7.30855 90.8018 6.94607C92.7115 6.24006 94.7841 5.85796 96.9328 5.85796C99.0841 5.85796 101.14 6.24098 103.042 6.93403C104.018 7.28942 105.141 6.90741 105.589 5.97076Z" fill="#FF9800"/>
<path d="M102.521 12.3803C102.916 11.5607 102.579 10.5661 101.722 10.2621C100.245 9.7386 98.6489 9.4502 96.9987 9.4502C95.3078 9.4502 93.6719 9.76263 92.1591 10.3189C91.3105 10.6309 90.9795 11.6196 91.3717 12.4343C91.7758 13.2736 92.7901 13.6007 93.6748 13.3093C94.7195 12.9653 95.8306 12.7791 96.9987 12.7791C98.1344 12.7791 99.2142 12.9478 100.229 13.2667C101.113 13.5446 102.119 13.2153 102.521 12.3803Z" fill="#FFBB00"/>
<path d="M105.589 5.97076C106.03 5.04902 105.652 3.93545 104.701 3.56172C102.296 2.61657 99.6892 2.10059 96.9328 2.10059C94.1663 2.10059 91.5292 2.62032 89.1088 3.58959C88.1676 3.96651 87.7979 5.07192 88.2354 5.98656C88.6864 6.92952 89.8214 7.30855 90.8018 6.94607C92.7115 6.24006 94.7841 5.85796 96.9328 5.85796C99.0841 5.85796 101.14 6.24098 103.042 6.93403C104.018 7.28942 105.141 6.90741 105.589 5.97076Z" fill="#FFBB00"/>
<path d="M22.2745 21.6785H22.4058C23.2918 21.6785 24.0138 22.4695 24.5717 24.0516L29.4942 34.1701C33.1041 26.4576 35.0731 22.4365 35.3684 22.1069C35.7622 21.8103 36.156 21.6455 36.5826 21.6455C37.7312 21.8433 38.2891 22.4365 38.2891 23.3264V23.3924C38.2891 23.689 37.3702 25.7655 35.4997 29.6547L30.8069 39.3448C30.3146 39.7073 29.888 39.9051 29.527 39.9051H29.4614C28.5097 39.9051 27.7221 39.0152 27.0986 37.2024C23.0621 28.9296 20.929 24.4141 20.6665 23.689V23.2605C20.8306 22.2058 21.3557 21.6785 22.2745 21.6785Z" fill="#FFBB00"/>
<path d="M16.5319 38.0264C15.1864 39.3118 13.3815 39.938 11.1499 39.938H10.6577C7.57291 39.938 5.0132 38.3889 2.97856 35.3237C2.22378 33.8405 1.86279 32.3244 1.86279 30.8082C1.86279 27.4464 3.50363 24.7437 6.81813 22.7661C8.22925 22.1069 9.57474 21.7773 10.9202 21.7773C14.3332 21.7773 17.057 23.4583 19.026 26.8201C19.6495 28.2044 19.9448 29.6217 19.9448 31.0719V38.323C19.9448 39.2129 19.387 39.7732 18.304 39.938H18.1727C17.418 39.938 16.8601 39.4766 16.4991 38.5867V38.3889L16.5319 38.0264ZM5.34137 30.7094V30.9071C5.34137 33.2143 6.48996 34.9282 8.78713 36.0818C9.5091 36.3454 10.1326 36.4773 10.7233 36.4773H11.2156C13.1189 36.4773 14.6613 35.5214 15.9084 33.6098C16.3678 32.7199 16.5647 31.8629 16.5647 31.0389V30.7753C16.5647 28.567 15.4818 26.8861 13.3159 25.6995C12.5611 25.3699 11.8063 25.2051 10.9859 25.2051H10.9202C8.62305 25.2051 6.88376 26.4246 5.70236 28.8307C5.43982 29.5887 5.34137 30.215 5.34137 30.7094Z" fill="#FFBB00"/>
<path d="M43.8353 15.6143H44.1306C45.1808 15.845 45.673 16.3394 45.673 17.0974V21.6788H47.6749L48.2327 21.6129C49.086 21.6129 49.6439 22.1732 49.9064 23.2938C49.9064 24.1178 49.4141 24.744 48.4296 25.0736L47.4123 25.0077H45.673V33.9727C45.673 35.324 46.0668 36.1151 46.8216 36.3787L48.1343 36.5106H48.7906C49.611 36.5106 50.1033 37.0379 50.333 38.1256V38.2904C50.1361 39.378 49.5782 39.9054 48.6594 39.9054H47.3795C45.2136 39.9054 43.6056 38.7189 42.5554 36.3787C42.3585 35.7855 42.2601 35.0933 42.2601 34.3352V24.9747H41.5709L40.488 25.0407C39.5035 24.6781 39.0112 24.1178 39.0112 23.2609C39.2081 22.1732 39.5691 21.6458 40.127 21.6458V21.514L41.2756 21.6458H42.2601V17.427C42.4242 16.2075 42.9164 15.6143 43.8353 15.6143Z" fill="#FFBB00"/>
<path d="M59.5871 21.8428C61.9171 21.8428 64.0174 22.7327 65.8879 24.4795C67.6929 26.3582 68.5789 28.5006 68.5789 30.8737C68.5789 34.2685 66.9709 36.9382 63.7877 38.8499C62.4094 39.542 61.0639 39.9046 59.7512 39.9046H59.2589C56.8305 39.9046 54.5662 38.751 52.4987 36.4768C51.2188 34.664 50.5625 32.7853 50.5625 30.8737C50.5625 27.9403 51.8424 25.4683 54.4349 23.4907C56.1085 22.4031 57.815 21.8428 59.5871 21.8428ZM54.0739 30.7089V31.0055C54.0739 33.082 55.0912 34.7299 57.093 35.8835C57.815 36.2461 58.5698 36.4438 59.3902 36.4438H59.7512C61.8843 36.4438 63.558 35.3232 64.7065 33.082C64.9691 32.3898 65.1003 31.6977 65.1003 31.0385V30.7418C65.1003 28.995 64.3127 27.5448 62.7047 26.3582C61.7858 25.732 60.7029 25.4024 59.5215 25.4024C57.1587 25.4024 55.4522 26.6549 54.3364 29.1268C54.1723 29.6542 54.0739 30.1815 54.0739 30.7089Z" fill="#FFBB00"/>
<path d="M71.467 14.8887H71.7624C72.8125 15.1194 73.3376 15.6467 73.3376 16.4707V23.5241C74.7159 22.2057 76.6192 21.5465 79.0477 21.5465C81.4105 21.5465 83.5436 22.4364 85.447 24.2162C87.2847 26.1279 88.1707 28.3032 88.1707 30.7092C88.1707 34.137 86.5627 36.8726 83.3139 38.8173C81.9027 39.5424 80.5244 39.9049 79.2118 39.9049H78.6867C76.2254 39.9049 73.9283 38.7513 71.7952 36.4442C70.4825 34.6973 69.8262 32.6538 69.8262 30.2808V16.4707C69.859 15.6797 70.3841 15.1523 71.467 14.8887ZM73.3376 30.5444V30.874C73.3376 33.2471 74.5846 35.0269 77.0459 36.1805C77.7022 36.3783 78.2929 36.4771 78.818 36.4771H79.2118C81.5089 36.4771 83.2482 35.2247 84.4296 32.7527C84.6265 31.9946 84.725 31.4343 84.725 31.0388V30.6103C84.725 28.2373 83.4779 26.4904 80.9511 25.3039C80.1963 25.1061 79.5728 25.0072 79.179 25.0072H78.9164C76.6192 25.0072 74.88 26.2267 73.6985 28.6657C73.436 29.3908 73.3376 30.0171 73.3376 30.5444Z" fill="black"/>
<path d="M104.087 21.6787C103.693 21.6787 103.3 21.8435 102.873 22.1401C102.578 22.4697 100.609 26.4908 96.9987 34.2033L92.0762 24.0848C91.5183 22.5027 90.7964 21.7117 89.9103 21.7117H89.779C88.893 21.7117 88.3351 22.239 88.1382 23.2937V23.7222C88.3679 24.4473 90.5338 28.9628 94.5703 37.2356C94.7016 37.6311 94.8656 37.9937 95.0297 38.3233L92.7654 43.0694C92.3716 43.9264 92.6997 44.9481 93.553 45.3436C94.4062 45.7392 95.4235 45.4095 95.8173 44.5526L98.5083 38.9165L102.971 29.7208C104.842 25.8316 105.761 23.7552 105.761 23.4585V23.3596C105.794 22.4368 105.236 21.8765 104.087 21.6787Z" fill="black"/>
<path d="M114.293 21.7109C117.478 21.9108 119.38 23.6884 119.544 24.3476C119.708 25.0068 119.544 25.3364 119.544 25.3364C119.544 25.3364 119.051 26.3252 118.395 26.3252C117.739 26.3252 117.903 26.1604 116.426 25.3364C114.949 24.5124 111.668 24.1828 110.847 25.9956C110.027 27.8084 112.736 28.6999 115.442 29.4563C118.7 30.3675 119.38 31.5987 119.872 32.9171C120.364 34.2355 120.036 35.8834 119.708 36.7074C119.38 37.3666 118.329 38.685 116.754 39.3442C115.179 40.0034 112.324 39.8386 110.847 39.509C109.48 39.1244 106.909 37.861 106.909 36.7074C106.909 35.5538 107.894 35.0594 108.386 35.0594C108.878 35.0595 108.911 35.2572 110.355 36.0482C112.16 37.037 114.621 37.037 115.77 36.213C116.918 35.3891 116.754 34.2354 115.934 33.4115C115.113 32.5875 111.504 31.5987 110.683 31.2691C109.863 30.9395 106.089 29.1267 107.237 25.5012C108.386 21.8756 112.543 21.601 114.293 21.7109Z" fill="black"/>
</svg>
